PathFileType	4	(X/Y/Z)	T1_P2_Vision_NoMovement_0_0-733.trc
DataRate	CameraRate	NumFrames	NumMarkers	Units	OrigDataRate	OrigDataStartFrame	OrigNumFrames
60	60	5	27	m	60	274	733
Frame#	Time	RHip			RKnee			RAnkle			RBigToe			RSmallToe			RHeel			LHip			LKnee			LAnkle			LBigToe			LSmallToe			LHeel			Neck			Head			Nose			RShoulder			RElbow			RWrist			RThumb			RIndex			RPinky			LShoulder			LElbow			LWrist			LThumb			LIndex			LPinky		
		X1	Y1	Z1	X2	Y2	Z2	X3	Y3	Z3	X4	Y4	Z4	X5	Y5	Z5	X6	Y6	Z6	X7	Y7	Z7	X8	Y8	Z8	X9	Y9	Z9	X10	Y10	Z10	X11	Y11	Z11	X12	Y12	Z12	X13	Y13	Z13	X14	Y14	Z14	X15	Y15	Z15	X16	Y16	Z16	X17	Y17	Z17	X18	Y18	Z18	X19	Y19	Z19	X20	Y20	Z20	X21	Y21	Z21	X22	Y22	Z22	X23	Y23	Z23	X24	Y24	Z24	X25	Y25	Z25	X26	Y26	Z26	X27	Y27	Z27
275	4.583333333333333	453.56339280376505	3714.2594501892922	638.6586171168119	844.1700196122164	3770.483308280224	650.089488376101	1206.1531507440816	3723.1099792234822	652.1311443397929	1290.1862161279782	3643.9268074314036	649.1211976955674	1296.3094208766702	3708.911762547433	604.3755485312059	1283.559529125822	3819.758074075569	742.1090428708508	459.43414987304845	3626.702468690665	849.7073842465201	840.0521616994087	3639.0555559400887	852.2454518634287	1228.4514540945459	3688.153464625943	866.1919967116456	1302.216548825825	3547.668628920787	798.4255793200623	1283.0628564288743	3537.7051897188867	844.5573245501689	1251.1418768977244	3701.8994131577165	855.965094687792	-121.07145047640418	3621.3428573271153	749.144903521164	-392.21642773554834	3568.9700556536695	736.1575565094778	-232.52779577444377	3438.9122577444323	693.0208161875588	-48.89715711911293	3659.953525355404	576.6647794414508	196.97048468198744	3699.0100848946126	528.0684511300963	353.1699292004571	3541.461782928588	617.9020752236538	425.4044357618048	3526.052003377892	723.5491503621332	450.3041990046434	3511.932128765928	720.510681706681	475.95642020453266	3460.2186609121927	653.4158054786194	-39.51560223338329	3535.6435301416345	894.205712633992	216.34841946140602	3494.292610830152	906.7987049250283	358.17452841462625	3456.192650045045	712.1350367175681	402.9383549421321	3460.9555744968693	611.2285290538806	447.04239582892404	3476.059493932448	611.9467843419793	462.9881937219777	3444.742178581135	645.5736679972949
276	4.6	449.68713637710937	3718.8845817683923	640.91924089288	849.8770433511977	3772.5014535916052	651.3764073566489	1206.2302613929676	3723.0034795356305	652.0327972188658	1294.8835689880002	3644.4428048115597	650.3276656265917	1288.3435624862466	3686.001510897595	597.8148963297292	1281.2497405584675	3805.2706141712274	727.9397312324202	459.5204589258992	3626.9782563844033	849.715730656829	845.4835250548292	3640.970174172794	853.7838999924409	1233.4484161391135	3679.4658359442924	856.1259044506311	1308.545133239016	3551.173086583633	799.3574949076219	1288.3497986127209	3539.328253728794	846.1954483439238	1258.066089010416	3706.1989311094853	857.3124149288827	-120.7724270938592	3621.158678156169	748.9133851388899	-392.2537578585171	3570.749348506355	732.3015162131653	-232.59345910136392	3453.605915323087	706.3643104401938	-48.984114325871595	3659.7554870576473	576.7011693180407	195.4472260397195	3677.6311890674688	523.4238414839223	353.0806376054149	3541.5668106485264	617.9071645040034	425.16385942301633	3526.745125263992	723.8480500349349	450.20255446176856	3512.094299699952	720.5558359072936	476.07921577381063	3460.593136102434	653.4360442450377	-39.28735675277328	3557.5735472741458	901.8336482890035	216.27060904395466	3494.4354236474	906.866900322738	358.1463327524351	3456.3315019142206	712.2231934785843	402.7177714710228	3460.954698880184	611.6086772874605	446.9622944147586	3476.469678018735	612.5009196873905	465.7211536645407	3457.6000185861067	657.3858518839436
277	4.616666666666666	449.5631462691977	3718.9335064589936	640.8684325858738	844.1854548508413	3770.1967665998786	649.9415201889664	1206.1505884774583	3722.9731395787353	652.1719451296505	1295.5904281899861	3646.6680272204453	651.540632963557	1296.513015191617	3706.925529570624	608.9474781462158	1274.2044372669739	3796.432775478164	731.0691523215836	459.3737003324061	3626.721624111886	849.5149601170104	839.9389717137406	3618.5784790036587	846.3866044335439	1235.3211711040474	3692.397831950757	867.6455021057412	1315.944368894744	3565.6521244192313	812.5438807439806	1283.6802925820514	3537.613276557741	844.7667163615469	1257.9770196781535	3706.131431766633	857.1653610046096	-120.70359124813353	3620.9456733757465	748.8003394199754	-392.1277768742939	3568.56233732229	735.9810563547459	-233.08573920262478	3459.107188270823	699.1488248413332	-49.078084137803536	3660.1918158715494	576.8151272494523	197.0215445651053	3699.1731552998244	528.1513132259036	353.0864769198643	3541.719951976642	618.0258139573328	425.6968605291829	3525.672565864395	723.3931334793805	450.71083046926094	3512.05553973385	720.5437385169656	479.3546204649638	3474.8595754687226	666.5468521794651	-39.66547765196791	3535.852260900971	894.3426689162125	215.95402521293732	3494.7259102733815	907.272888928976	358.0636418471064	3456.366343993829	712.156411630973	407.73039223174544	3464.1566579713976	612.558603380182	446.92033572497326	3476.017618568795	612.1950064199143	465.90599975696085	3457.4961050343522	657.289452327561
278	4.633333333333334	449.6115647432332	3718.815653555046	640.7337971564767	849.7733708804591	3772.0633736921304	651.1400951470686	1211.7733511983763	3724.932875756226	653.7468455275185	1290.532477960953	3643.7746479060024	649.4807519750464	1288.7341661155858	3686.641844219825	598.2479853822127	1275.2141693534272	3800.6177669694803	726.8748540144826	459.4037319165283	3626.649963492929	849.4961704778558	839.9891130410307	3618.5451579088176	846.3890822070863	1235.383547171298	3692.670354603556	867.8206563129049	1316.0145405964986	3565.899058175244	812.668824777525	1283.6335691606803	3537.842441515127	844.8111224889768	1258.1354953261825	3706.322962988752	857.3516256465699	-120.73534436154225	3621.06968909585	748.9242929193935	-387.6928018839484	3564.9409713331415	734.1211233287897	-232.3020383768542	3439.033697999085	693.048365281461	-49.09080692261551	3660.114702163071	576.8111821385377	196.9812621273739	3699.0499844800324	528.0989163281218	353.0775236193969	3541.6492577069625	617.9945112523277	425.73059642231965	3526.0483352758724	723.6121161183747	450.54811878090595	3512.483228102516	720.7324126642109	479.83246719680216	3473.7459812655597	671.670362791965	-39.601594908962554	3535.894076561003	894.4399309560262	216.12009465291516	3494.2847048073186	906.851511928862	358.06134551251466	3456.415867094433	712.1569237781785	407.8689953288818	3464.068911381484	612.5915392488904	446.8825798394806	3476.29498088573	612.3083148476801	465.78424750767334	3457.6952993015398	657.3070969003955
279	4.65	449.678358343408	3718.7899318276004	640.7925135363097	849.7435944704515	3772.018659510663	651.130823426133	1206.0653072037856	3723.0317098625655	652.1492780614416	1295.1974076080608	3645.6569127339067	650.7602897461003	1296.6995287673024	3707.014783000706	609.0177350845211	1274.9314527903446	3800.6458184236185	726.9319657986862	459.49209587356626	3626.701825349313	849.5140748167047	845.4304880170034	3640.7585566955763	853.6943325618273	1228.6309246821227	3688.336765375215	866.3216915063097	1316.155261818562	3566.299926158359	813.0738539738717	1284.1894638847039	3537.2174185829385	850.1033627425908	1258.034788318763	3706.511660765697	857.449523498074	-120.84309514967805	3621.1823642847394	749.0186593580495	-385.8884255825576	3543.572690203858	727.8880574235154	-232.32574494339312	3439.0219324808877	693.0780013754944	-49.04762750053455	3660.1715148477256	576.8393488955119	197.03837450599372	3696.8471287359794	532.1597120643805	353.1748773323888	3541.5211633000795	617.9326633333374	425.63932712346474	3525.8431790560385	723.4601738548859	450.6908418635888	3512.212039409439	720.5684903417339	479.53875717745234	3473.483048622019	671.5174688801307	-39.59867235252209	3536.0475445273114	894.4813062133227	216.0503352544547	3494.672254307357	907.2025650891268	358.0215257541996	3456.260201588286	712.1712853422172	402.7973094289794	3456.883583671847	614.8671508360884	443.67196989365266	3456.335599839111	606.9082761184453	466.4261747496166	3459.236376796708	664.1438116023237
